<svg xmlns="http://www.w3.org/2000/svg" width="1200" height="400" viewBox="0 0 1200 400" role="img" aria-labelledby="title desc">
<title id="title">Chunk-Level SAEs — Beyond Token Scale</title><desc id="desc">Sparse features over meaningful spans. A conceptual illustration groups token representations into chunks and a sparse dictionary.</desc>
<defs><linearGradient id="bg" x1="0" y1="0" x2="1" y2="1"><stop stop-color="#0B1827"/><stop offset="1" stop-color="#123B4B"/></linearGradient><pattern id="grid" width="30" height="30" patternUnits="userSpaceOnUse"><path d="M 30 0 L 0 0 0 30" fill="none" stroke="#B9F4EE" stroke-opacity="0.045"/></pattern></defs>
<rect x="0" y="0" width="1200" height="400" rx="18" fill="url(#bg)" />
<rect x="0" y="0" width="1200" height="400" rx="18" fill="url(#grid)" />
<g font-family="Arial, Helvetica, sans-serif">
<rect x="48" y="42" width="6" height="18" rx="3" fill="#62E6CE" />
<text x="68" y="56" font-size="17" fill="#B7DAD9" font-weight="700" letter-spacing="3">CHUNK-LEVEL SAEs</text>
<text x="48" y="148" font-size="72" fill="#F5FCFF" font-weight="700" >Beyond</text>
<text x="48" y="227" font-size="72" fill="#F5FCFF" font-weight="700" >Token Scale.</text>
<text x="51" y="277" font-size="24" fill="#9FC3CE" font-weight="400" >Sparse features over meaningful spans.</text>
<text x="51" y="348" font-size="13" fill="#65E6CD" font-weight="700" letter-spacing="2">MEAN</text>
<text x="134" y="348" font-size="13" fill="#A8B8FF" font-weight="700" letter-spacing="2">/  CROSS</text>
<text x="247" y="348" font-size="13" fill="#FFD3A0" font-weight="700" letter-spacing="2">/  JOINT</text>
<path d="M630 52 V348" stroke="#C2E5EB" stroke-opacity="0.14"/>
<text x="696" y="69" font-size="12" fill="#88B1BD" font-weight="700" letter-spacing="2">TOKENS</text>
<text x="1041" y="69" font-size="12" fill="#88B1BD" font-weight="700" letter-spacing="2">FEATURES</text>
<rect x="696" y="95" width="21" height="18" rx="4" fill="#63E4CE" opacity="0.3"/>
<rect x="731" y="95" width="28" height="18" rx="4" fill="#63E4CE" opacity="0.43"/>
<rect x="766" y="95" width="18" height="18" rx="4" fill="#63E4CE" opacity="0.56"/>
<rect x="801" y="95" width="32" height="18" rx="4" fill="#63E4CE" opacity="0.69"/>
<rect x="836" y="95" width="20" height="18" rx="4" fill="#63E4CE" opacity="0.3"/>
<path d="M700 122 v9 h153 v-9 M777 131 v12 h72" fill="none" stroke="#63E4CE" stroke-opacity="0.75" stroke-width="1.5"/>
<rect x="859" y="127" width="71" height="27" rx="7" fill="#63E4CE" opacity="0.16"/>
<text x="876" y="146" font-size="15" fill="#63E4CE" font-weight="700" >μ A</text>
<path d="M941 140 H1003" stroke="#63E4CE" stroke-width="1.5" stroke-opacity="0.65"/><path d="M998 135 l6 5 -6 5" fill="none" stroke="#63E4CE" stroke-width="1.5"/>
<rect x="1022" y="110" width="10" height="53" rx="4" fill="#285361" />
<rect x="1022" y="110" width="10" height="53" rx="4" fill="#63E4CE" />
<rect x="1041" y="110" width="10" height="53" rx="4" fill="#285361" />
<rect x="1060" y="110" width="10" height="53" rx="4" fill="#285361" />
<rect x="1060" y="130" width="10" height="33" rx="4" fill="#63E4CE" />
<rect x="1079" y="110" width="10" height="53" rx="4" fill="#285361" />
<rect x="1079" y="110" width="10" height="53" rx="4" fill="#63E4CE" />
<rect x="1098" y="110" width="10" height="53" rx="4" fill="#285361" />
<rect x="1117" y="110" width="10" height="53" rx="4" fill="#285361" />
<rect x="696" y="172" width="21" height="18" rx="4" fill="#91A7F0" opacity="0.43"/>
<rect x="731" y="172" width="28" height="18" rx="4" fill="#91A7F0" opacity="0.56"/>
<rect x="766" y="172" width="18" height="18" rx="4" fill="#91A7F0" opacity="0.69"/>
<rect x="801" y="172" width="32" height="18" rx="4" fill="#91A7F0" opacity="0.3"/>
<rect x="836" y="172" width="20" height="18" rx="4" fill="#91A7F0" opacity="0.43"/>
<path d="M700 199 v9 h153 v-9 M777 208 v12 h72" fill="none" stroke="#91A7F0" stroke-opacity="0.75" stroke-width="1.5"/>
<rect x="859" y="204" width="71" height="27" rx="7" fill="#91A7F0" opacity="0.16"/>
<text x="876" y="223" font-size="15" fill="#91A7F0" font-weight="700" >μ B</text>
<path d="M941 217 H1003" stroke="#91A7F0" stroke-width="1.5" stroke-opacity="0.65"/><path d="M998 212 l6 5 -6 5" fill="none" stroke="#91A7F0" stroke-width="1.5"/>
<rect x="1022" y="187" width="10" height="53" rx="4" fill="#285361" />
<rect x="1041" y="187" width="10" height="53" rx="4" fill="#285361" />
<rect x="1060" y="187" width="10" height="53" rx="4" fill="#285361" />
<rect x="1060" y="207" width="10" height="33" rx="4" fill="#91A7F0" />
<rect x="1079" y="187" width="10" height="53" rx="4" fill="#285361" />
<rect x="1079" y="187" width="10" height="53" rx="4" fill="#91A7F0" />
<rect x="1098" y="187" width="10" height="53" rx="4" fill="#285361" />
<rect x="1117" y="187" width="10" height="53" rx="4" fill="#285361" />
<rect x="1117" y="207" width="10" height="33" rx="4" fill="#91A7F0" />
<rect x="696" y="249" width="21" height="18" rx="4" fill="#FFD19C" opacity="0.56"/>
<rect x="731" y="249" width="28" height="18" rx="4" fill="#FFD19C" opacity="0.69"/>
<rect x="766" y="249" width="18" height="18" rx="4" fill="#FFD19C" opacity="0.3"/>
<rect x="801" y="249" width="32" height="18" rx="4" fill="#FFD19C" opacity="0.43"/>
<rect x="836" y="249" width="20" height="18" rx="4" fill="#FFD19C" opacity="0.56"/>
<path d="M700 276 v9 h153 v-9 M777 285 v12 h72" fill="none" stroke="#FFD19C" stroke-opacity="0.75" stroke-width="1.5"/>
<rect x="859" y="281" width="71" height="27" rx="7" fill="#FFD19C" opacity="0.16"/>
<text x="876" y="300" font-size="15" fill="#FFD19C" font-weight="700" >μ C</text>
<path d="M941 294 H1003" stroke="#FFD19C" stroke-width="1.5" stroke-opacity="0.65"/><path d="M998 289 l6 5 -6 5" fill="none" stroke="#FFD19C" stroke-width="1.5"/>
<rect x="1022" y="264" width="10" height="53" rx="4" fill="#285361" />
<rect x="1041" y="264" width="10" height="53" rx="4" fill="#285361" />
<rect x="1041" y="274" width="10" height="43" rx="4" fill="#FFD19C" />
<rect x="1060" y="264" width="10" height="53" rx="4" fill="#285361" />
<rect x="1079" y="264" width="10" height="53" rx="4" fill="#285361" />
<rect x="1098" y="264" width="10" height="53" rx="4" fill="#285361" />
<rect x="1098" y="274" width="10" height="43" rx="4" fill="#FFD19C" />
<rect x="1117" y="264" width="10" height="53" rx="4" fill="#285361" />
<text x="751" y="353" font-size="11" fill="#88B1BD" font-weight="700" letter-spacing="2">POOL</text>
<text x="971" y="353" font-size="11" fill="#88B1BD" font-weight="700" letter-spacing="2">SPARSE ENCODE</text>
</g></svg>
